<?xml version="1.0" encoding="utf-8"?>
<!DOCTYPE svg PUBLIC "-//W3C//DTD SVG 1.1//EN" "http://www.w3.org/Graphics/SVG/1.1/DTD/svg11.dtd">
<svg version="1.1" id="图形" xmlns="http://www.w3.org/2000/svg" xmlns:xlink="http://www.w3.org/1999/xlink" x="0px" y="0px" width="1024px" height="1024px" viewBox="0 0 1024 1024" enable-background="new 0 0 1024 1024" xml:space="preserve">
  <path fill="#ea8010" d="M397.80352 315.81056c-0.43008 5.36576 1.35168 9.03168 6.43072 11.55072 19.72224 9.80992 39.3216 19.82464 58.94144 29.83936 43.52 22.2208 87.10144 44.35968 130.4576 66.84672 9.5232 4.93568 18.16576 8.99072 27.07456-0.67584 1.47456-1.6384 4.36224-1.92512 6.41024-3.15392 33.40288-20.0704 68.07552-19.39456 101.64224-2.51904 37.9904 19.08736 57.11872 51.712 59.16672 92.73344-0.43008 6.94272-0.47104 12.26752-1.16736 17.53088-6.00064 48.96768-48.64 86.97856-93.2864 92.4672-39.48544 4.85376-83.08736-14.41792-104.28416-48.31232-12.34944-19.70176-18.37056-40.96-18.35008-64.18432 0-2.84672-1.96608-7.04512-4.28032-8.31488-12.92288-7.04512-26.27584-13.35296-39.48544-19.98848-21.07392-10.62912-42.1888-21.25824-63.24224-31.98976-32.91136-16.71168-65.76128-33.64864-98.83648-49.99168-2.72384-1.35168-8.00768-0.32768-10.67008 1.57696-41.71776 29.45024-90.112 30.49472-130.51904-0.512-34.52928-26.50112-47.96416-62.30016-40.2432-106.22976 4.9152-27.72992 19.3536-48.86528 40.5504-65.31072 36.41344-28.3648 84.39808-29.55264 123.02336-4.44416 4.62848 2.9696 8.4992 3.39968 13.25056 1.00352 16.7936-8.51968 33.75104-16.7936 50.54464-25.35424 47.06304-24.08448 93.94176-48.47616 141.12768-72.27392 12.10368-6.12352 19.61984-11.59168 20.5824-28.20096 2.048-35.16416 22.03648-61.72672 51.05664-81.16224 13.59872-9.1136 29.06112-12.16512 45.17888-14.04928 39.8336-4.58752 72.0896 9.85088 95.92832 40.57088 25.8048 33.28 29.63456 70.26688 13.29152 109.75232-18.41152 44.56448-69.12 69.95968-113.5616 62.81216-19.10784-3.05152-37.13024-9.19552-52.10112-22.3232-3.072-2.72384-6.00064-5.3248-11.20256-2.56-15.48288 8.192-31.39584 15.5648-47.04256 23.51104-48.27136 24.55552-96.50176 49.27488-144.77312 73.8304-13.14816 6.71744-13.18912 6.63552-11.776 21.07392C397.84448 311.5712 397.96736 313.7216 397.80352 315.81056z" transform="translate(0, 812) scale(1, -1)"/>
</svg>
