<?xml version="1.0" encoding="utf-8"?>
<!DOCTYPE svg PUBLIC "-//W3C//DTD SVG 1.1//EN" "http://www.w3.org/Graphics/SVG/1.1/DTD/svg11.dtd">
<svg version="1.1" id="图形" xmlns="http://www.w3.org/2000/svg" xmlns:xlink="http://www.w3.org/1999/xlink" x="0px" y="0px" width="1024px" height="1024px" viewBox="0 0 1024 1024" enable-background="new 0 0 1024 1024" xml:space="preserve">
  <path fill="#00bb9c" d="M511.236096 710.728448c9.483264 0 18.106368-5.248 21.963776-13.401088l101.773312-214.494208c5.868544-12.3904 17.429504-21.025792 30.82752-23.054336l234.134528-35.359744c8.825856-1.314816 16.329728-7.440384 19.088384-15.488 2.634752-7.804928 0.618496-16.356352-5.310464-22.362112L742.13888 212.62208c-9.3696-9.488384-13.621248-22.9888-11.440128-36.230144l39.788544-241.258496c1.399808-8.397824-2.2528-16.770048-9.32352-21.714944-4.271104-2.956288-9.26208-4.518912-14.437376-4.518912-4.209664 0-8.40192 1.051648-11.979776 2.998272L530.624512 23.502592c-6.052864 3.304448-12.717056 4.97152-19.388416 4.97152s-13.340672-1.668096-19.392512-4.97152L287.941632-87.99872c-3.734528-2.029568-7.964672-3.106816-12.201984-3.106816-5.088256 0-10.20416 1.604608-14.19264 4.361216-7.289856 5.107712-10.960896 13.499392-9.567232 21.917696l39.795712 241.217536c2.176 13.241344-2.075648 26.74176-11.440128 36.230144L108.73856 386.634496c-5.889024 5.960704-7.912448 14.491648-5.291008 22.216704 2.75456 8.128512 10.258432 14.253056 19.147776 15.568896l234.095616 35.359744c13.4144 2.028544 24.958976 10.66496 30.828544 23.054336l101.731328 214.454272C493.144064 705.460992 501.767168 710.728448 511.236096 710.728448M511.236096 752.252672c-25.179136 0-48.08192-14.373888-58.805248-36.898816L350.67904 500.854528l-234.095616-35.359744c-24.060928-3.587072-44.046336-20.33152-51.796992-43.077632-7.725056-22.868992-1.8944-48.0512 15.117312-65.219584l171.537408-173.954048-39.790592-241.216512c-4.035584-24.33024 6.326272-48.677888 26.656768-62.932992 11.180032-7.744512 24.298496-11.715584 37.433344-11.715584 10.764288 0 21.6064 2.65728 31.432704 7.967744l204.063744 111.61088 204.122112-111.61088c9.787392-5.311488 20.611072-7.967744 31.368192-7.967744 13.161472 0 26.26048 3.971072 37.460992 11.715584 20.328448 14.255104 30.670848 38.602752 26.636288 62.932992l-39.794688 241.216512 171.580416 173.954048c16.992256 17.173504 22.823936 42.350592 15.09376 65.219584-7.766016 22.745088-27.756544 39.49056-51.831808 43.082752L671.812608 500.854528l-101.77536 214.499328C559.376384 737.878784 536.435712 752.252672 511.236096 752.252672L511.236096 752.252672 511.236096 752.252672zM511.236096 752.252672" transform="translate(0, 812) scale(1, -1)"/>
</svg>
